<?xml version="1.0" standalone="no"?>
<!DOCTYPE svg PUBLIC "-//W3C//DTD SVG 20010904//EN"
 "http://www.w3.org/TR/2001/REC-SVG-20010904/DTD/svg10.dtd">
<svg version="1.0" xmlns="http://www.w3.org/2000/svg"
 width="512.000000pt" height="512.000000pt" viewBox="0 0 512.000000 512.000000"
 preserveAspectRatio="xMidYMid meet">

<g transform="translate(0.000000,512.000000) scale(0.100000,-0.100000)"
fill="#000000" stroke="none">
<path d="M3317 3989 c-82 -19 -162 -81 -200 -156 -66 -127 -27 -316 81 -399
77 -59 104 -63 462 -72 l325 -8 -580 -582 -580 -582 -455 454 c-505 504 -507
505 -635 514 -55 3 -82 -1 -130 -18 -58 -22 -89 -52 -792 -753 -492 -491 -740
-745 -756 -776 -84 -155 -68 -304 43 -405 67 -60 122 -81 215 -81 140 0 113
-23 795 660 l605 605 465 -464 c525 -523 523 -521 655 -521 60 0 81 5 140 34
66 32 116 80 787 755 l717 721 1 -305 c0 -168 5 -336 10 -374 24 -166 139
-268 303 -269 43 0 93 7 124 17 69 23 144 91 174 158 l24 53 0 785 0 785 -33
68 c-25 50 -46 77 -80 102 -92 66 -77 65 -903 64 -409 -1 -761 -5 -782 -10z"/>
</g>
</svg>
